<?xml version="1.0" encoding="utf-8"?>
<!-- Generator: Adobe Illustrator 27.9.0, SVG Export Plug-In . SVG Version: 6.00 Build 0)  -->
<svg version="1.1" id="Layer_1" xmlns="http://www.w3.org/2000/svg" xmlns:xlink="http://www.w3.org/1999/xlink" x="0px" y="0px"
	 viewBox="0 0 1019.12 175.27" style="enable-background:new 0 0 1019.12 175.27;" xml:space="preserve">
<style type="text/css">
	.st0{fill:#231F20;}
	.st1{fill:#010101;}
</style>
<g>
	<g>
		<g>
			<path class="st0" d="M493.64,41.67l-20.7,31.86c8.39,5.45,19.61,3.07,25.06-5.33l20.7-31.86
				C510.31,30.9,499.09,33.28,493.64,41.67z"/>
		</g>
		<g>
			<path class="st0" d="M521.12,41.67l-20.7,31.86c8.39,5.45,19.61,3.07,25.06-5.33l20.7-31.86
				C537.79,30.9,526.57,33.28,521.12,41.67z"/>
		</g>
		<g>
			<path class="st0" d="M491.23,36.35c-8.39-5.45-19.61-3.07-25.06,5.33l-9.6,14.78c-11.1,17.09-22.92,30.98-48.77,16.93
				c-8.61-4.8-16.62-10.94-25.55-15.58h9.94h57.53c0.71-1.02,1.42-2.07,2.14-3.17l-1.17-1.74c-0.32-0.48-0.64-0.94-0.97-1.41h-57.56
				h-9.94c8.93-4.64,16.96-10.77,25.57-15.58c24.47-13.3,36.37-1.55,46.99,14.24l7.24-11.15c1.15-1.78,2.53-3.35,4.07-4.71
				c-2.77-3.51-6.02-6.64-9.75-9.13c-5.82-3.89-12.54-6.44-20.11-7.02c-5.98-0.62-12.51-0.07-18.13,2.03
				c-10.87,4-19.16,11.33-27.76,18.29c-4.85,3.83-9.81,8.1-15.3,11.01c-2.39,1.27-4.88,2.27-7.51,2.88v-1.62
				c0-2.26-2.63-3.51-4.39-2.08l-4.82,3.93c-1.32,1.08-1.32,3.09,0,4.17l4.82,3.93c1.76,1.43,4.39,0.18,4.39-2.08v-1.62
				c8.65,1.98,15.84,8.39,22.8,13.89c8.6,6.96,16.89,14.29,27.76,18.29c5.62,2.1,12.14,2.66,18.13,2.03
				c7.58-0.58,14.3-3.13,20.11-7.02c5.28-3.53,9.61-8.3,12.97-13.7c5.28-8.5,6.41-10.24,6.41-10.24L491.23,36.35z"/>
		</g>
		<g>
			<path class="st0" d="M660.78,52.56l-4.82-3.93c-1.76-1.43-4.39-0.18-4.39,2.08v1.62c-8.65-1.98-15.84-8.39-22.8-13.89
				c-8.6-6.96-16.89-14.29-27.76-18.29c-5.62-2.1-12.14-2.66-18.13-2.03c-7.58,0.58-14.3,3.13-20.11,7.02
				c-5.28,3.53-9.61,8.3-12.97,13.7c-5.28,8.5-6.41,10.24-6.41,10.24l-15.5,23.86c8.39,5.45,19.61,3.07,25.06-5.33l9.6-14.78
				c11.1-17.09,22.92-30.98,48.77-16.93c8.61,4.81,16.62,10.94,25.55,15.58h-9.94H569.4c-0.71,1.02-1.42,2.07-2.14,3.17l1.17,1.74
				c0.32,0.48,0.64,0.94,0.97,1.41h57.56h9.94c-8.93,4.64-16.96,10.77-25.57,15.58c-24.47,13.3-36.37,1.55-46.99-14.24l-7.24,11.15
				c-1.15,1.78-2.53,3.35-4.07,4.71c2.77,3.51,6.02,6.64,9.75,9.13c5.82,3.89,12.54,6.44,20.11,7.02
				c5.98,0.62,12.51,0.07,18.13-2.03c10.87-4,19.16-11.33,27.76-18.29c4.85-3.83,9.81-8.1,15.3-11.01c2.39-1.27,4.88-2.27,7.51-2.88
				v1.62c0,2.26,2.63,3.51,4.39,2.08l4.82-3.93C662.1,55.65,662.1,53.64,660.78,52.56z"/>
		</g>
	</g>
	<g>
		<path class="st1" d="M21.21,135.54h5.11l5.89,15.59h0.27l5.88-15.59h5.11v21.3h-3.97v-14.5h-0.3l-5.46,14.5h-2.79l-5.46-14.5h-0.3
			v14.5h-3.97V135.54z"/>
		<path class="st1" d="M63.74,135.54h14.11v3.68H68.2v5.14h9.11v3.42H68.2v5.39h9.65v3.68H63.74V135.54z"/>
		<path class="st1" d="M97.66,135.54h4.46v21.3h-4.46V135.54z"/>
		<path class="st1" d="M145.31,135.54h4.46v17.63h9.48v3.68h-13.93V135.54z"/>
		<path class="st1" d="M178.41,135.54h4.46v21.3h-4.46V135.54z"/>
		<path class="st1" d="M203.15,135.54h3.72l9.83,13.57h0.24v-13.57h4.27v21.3h-3.69l-9.86-13.62h-0.24v13.62h-4.27V135.54z"/>
		<path class="st1" d="M240.54,146.18v-0.03c0-6.83,3.91-11.16,10.11-11.16c5.03,0,8.71,2.89,9.34,7.14l0.03,0.15h-4.43l-0.03-0.15
			c-0.61-2.11-2.42-3.37-4.92-3.37c-3.44,0-5.57,2.8-5.57,7.34v0.03c0,4.62,2.23,7.47,5.74,7.47c2.92,0,4.93-1.79,5.02-4.47
			l0.01-0.4h-4.61v-3.25h8.95v2.7c0,5.65-3.63,9.2-9.45,9.2C244.42,157.39,240.54,153.12,240.54,146.18z"/>
		<path class="st1" d="M302.49,135.54h8.78c4.49,0,7.48,2.89,7.48,7.28v0.03c0,4.38-3,7.28-7.48,7.28h-4.33v6.72h-4.46V135.54z
			 M306.95,139.07v7.57h3.23c2.55,0,4.06-1.36,4.06-3.78v-0.03c0-2.42-1.51-3.76-4.06-3.76H306.95z"/>
		<path class="st1" d="M337.98,135.54h8.87c4.84,0,7.62,2.58,7.62,6.78v0.03c0,2.73-1.42,5.08-3.85,6.04l4.49,8.46h-5.05l-3.97-7.79
			h-3.65v7.79h-4.46V135.54z M346.36,145.8c2.23,0,3.54-1.27,3.54-3.37v-0.03c0-2.05-1.37-3.38-3.6-3.38h-3.87v6.78H346.36z"/>
		<path class="st1" d="M379.96,135.54h5.24l7.41,21.3h-4.69l-1.58-5.17h-7.51l-1.58,5.17h-4.68L379.96,135.54z M379.84,148.34h5.48
			l-2.6-8.55h-0.27L379.84,148.34z"/>
		<path class="st1" d="M411.35,135.54h3.72l9.83,13.57h0.24v-13.57h4.27v21.3h-3.69l-9.86-13.62h-0.24v13.62h-4.27V135.54z"/>
		<path class="st1" d="M449.68,135.54h4.46v21.3h-4.46V135.54z"/>
		<path class="st1" d="M473.48,146.2v-0.03c0-6.91,3.81-11.17,9.99-11.17c5.05,0,8.83,3.22,9.24,7.72v0.18h-4.34v-0.1
			c-0.46-2.39-2.36-4.02-4.9-4.02c-3.35,0-5.43,2.82-5.43,7.4v0.03c0,4.58,2.08,7.41,5.45,7.41c2.55,0,4.4-1.49,4.87-3.76l0.03-0.12
			h4.34l-0.01,0.16c-0.46,4.46-4.1,7.5-9.24,7.5C477.3,157.39,473.48,153.1,473.48,146.2z"/>
		<path class="st1" d="M534.86,135.54h4.46v8.65h9.6v-8.65h4.46v21.3h-4.46v-8.98h-9.6v8.98h-4.46V135.54z"/>
		<path class="st1" d="M573.65,135.54h14.11v3.68h-9.65v5.14h9.11v3.42h-9.11v5.39h9.65v3.68h-14.11V135.54z"/>
		<path class="st1" d="M613.45,135.54h5.24l7.41,21.3h-4.69l-1.58-5.17h-7.51l-1.58,5.17h-4.68L613.45,135.54z M613.33,148.34h5.48
			l-2.6-8.55h-0.27L613.33,148.34z"/>
		<path class="st1" d="M644.83,135.54h4.46v17.63h9.48v3.68h-13.93V135.54z"/>
		<path class="st1" d="M677.92,135.54h4.46v21.3h-4.46V135.54z"/>
		<path class="st1" d="M702.67,135.54h3.72l9.83,13.57h0.24v-13.57h4.27v21.3h-3.69l-9.86-13.62h-0.24v13.62h-4.27V135.54z"/>
		<path class="st1" d="M740.06,146.18v-0.03c0-6.83,3.91-11.16,10.11-11.16c5.03,0,8.71,2.89,9.34,7.14l0.03,0.15h-4.43l-0.03-0.15
			c-0.61-2.11-2.42-3.37-4.92-3.37c-3.44,0-5.57,2.8-5.57,7.34v0.03c0,4.62,2.23,7.47,5.74,7.47c2.92,0,4.93-1.79,5.02-4.47
			l0.01-0.4h-4.61v-3.25h8.95v2.7c0,5.65-3.63,9.2-9.45,9.2C743.94,157.39,740.06,153.12,740.06,146.18z"/>
		<path class="st1" d="M801.07,146.2v-0.03c0-6.91,3.81-11.17,9.99-11.17c5.05,0,8.83,3.22,9.24,7.72v0.18h-4.34v-0.1
			c-0.46-2.39-2.36-4.02-4.9-4.02c-3.35,0-5.43,2.82-5.43,7.4v0.03c0,4.58,2.08,7.41,5.45,7.41c2.55,0,4.4-1.49,4.87-3.76l0.03-0.12
			h4.34l-0.01,0.16c-0.46,4.46-4.1,7.5-9.24,7.5C804.89,157.39,801.07,153.1,801.07,146.2z"/>
		<path class="st1" d="M839.53,135.54h14.11v3.68h-9.65v5.14h9.11v3.42h-9.11v5.39h9.65v3.68h-14.11V135.54z"/>
		<path class="st1" d="M873.46,135.54h3.72l9.83,13.57h0.24v-13.57h4.27v21.3h-3.69l-9.86-13.62h-0.24v13.62h-4.27V135.54z"/>
		<path class="st1" d="M916.96,139.21h-6.39v-3.68h17.24v3.68h-6.39v17.63h-4.46V139.21z"/>
		<path class="st1" d="M946.87,135.54h14.11v3.68h-9.65v5.14h9.11v3.42h-9.11v5.39h9.65v3.68h-14.11V135.54z"/>
		<path class="st1" d="M980.79,135.54h8.87c4.84,0,7.62,2.58,7.62,6.78v0.03c0,2.73-1.42,5.08-3.85,6.04l4.49,8.46h-5.05l-3.97-7.79
			h-3.65v7.79h-4.46V135.54z M989.17,145.8c2.23,0,3.54-1.27,3.54-3.37v-0.03c0-2.05-1.37-3.38-3.6-3.38h-3.87v6.78H989.17z"/>
	</g>
</g>
</svg>
